<?xml version="1.0" standalone="no"?>
<!DOCTYPE svg PUBLIC "-//W3C//DTD SVG 20010904//EN"
 "http://www.w3.org/TR/2001/REC-SVG-20010904/DTD/svg10.dtd">
<svg version="1.0" xmlns="http://www.w3.org/2000/svg"
 width="200.000000pt" height="200.000000pt" viewBox="0 0 200.000000 200.000000"
 preserveAspectRatio="xMidYMid meet">
<metadata>
Created by potrace 1.11, written by Peter Selinger 2001-2013
</metadata>
<g transform="translate(0.000000,200.000000) scale(0.100000,-0.100000)"
fill="#000000" stroke="none">
<path d="M900 1892 c-135 -15 -276 -67 -395 -147 -85 -56 -235 -205 -235 -232
0 -8 8 -27 19 -41 10 -15 20 -32 22 -38 9 -23 204 -354 209 -354 3 0 32 46 64
103 80 137 145 249 156 267 6 8 13 22 17 30 4 8 51 91 105 183 54 93 98 172
98 176 0 5 7 14 15 21 8 7 15 18 15 26 0 12 -22 14 -90 6z"/>
<path d="M960 1694 c-63 -108 -121 -208 -128 -221 l-13 -23 476 0 476 0 -40
58 c-147 209 -362 341 -616 378 l-40 6 -115 -198z"/>
<path d="M181 1379 c-71 -150 -98 -370 -65 -529 18 -91 63 -220 78 -226 6 -2
121 -3 254 -2 l243 3 -231 400 c-127 220 -235 404 -240 409 -6 6 -21 -16 -39
-55z"/>
<path d="M1353 1382 c-18 -2 -33 -5 -33 -8 0 -6 450 -786 460 -797 4 -4 19 16
33 45 107 217 114 497 20 721 l-16 37 -91 0 c-50 0 -147 2 -216 3 -69 1 -140
1 -157 -1z"/>
<path d="M768 1253 c-47 -29 -64 -83 -48 -144 11 -42 47 -69 117 -90 63 -18
88 -51 84 -111 -3 -50 -89 -75 -150 -43 -23 12 -28 20 -26 45 2 28 0 31 -23
28 -23 -3 -27 -8 -27 -41 -1 -32 4 -43 29 -62 112 -84 251 -30 250 96 -1 64
-24 96 -92 125 -106 46 -107 47 -110 86 -4 52 23 78 78 74 39 -3 65 -20 54
-37 -5 -9 31 -18 43 -10 5 3 8 12 7 19 -1 6 -2 21 -3 33 -2 43 -129 65 -183
32z"/>
<path d="M1012 1243 c2 -20 8 -27 21 -25 16 3 17 -11 17 -178 0 -173 -1 -182
-20 -187 -13 -4 -20 -14 -20 -29 l0 -24 163 2 162 3 0 45 c0 25 -4 48 -9 52
-15 10 -48 -12 -42 -27 7 -19 -16 -25 -104 -25 l-78 0 2 183 c1 154 3 182 16
183 8 1 20 2 26 3 6 0 10 11 9 24 -1 20 -7 22 -74 25 l-72 3 3 -28z"/>
<path d="M1243 515 c-128 -222 -233 -406 -233 -409 0 -3 6 -4 13 -1 6 2 39 6
72 9 192 15 407 123 550 278 31 34 61 71 67 83 8 18 -8 53 -107 226 -65 112
-120 207 -124 211 -3 4 -111 -175 -238 -397z"/>
<path d="M239 529 c-11 -7 77 -118 145 -182 115 -110 280 -197 430 -228 50
-10 96 -19 102 -19 10 0 254 410 254 427 0 9 -917 11 -931 2z"/>
</g>
</svg>
