<?xml version="1.0" standalone="no"?>
<!DOCTYPE svg PUBLIC "-//W3C//DTD SVG 20010904//EN"
 "http://www.w3.org/TR/2001/REC-SVG-20010904/DTD/svg10.dtd">
<svg version="1.0" xmlns="http://www.w3.org/2000/svg"
 width="400.000000pt" height="400.000000pt" viewBox="0 0 400.000000 400.000000"
 preserveAspectRatio="xMidYMid meet">
<metadata>
Created by potrace 1.14, written by Peter Selinger 2001-2017
</metadata>
<g transform="translate(0.000000,400.000000) scale(0.100000,-0.100000)"
fill="#000000" stroke="none">
<path d="M0 2000 l0 -2000 2000 0 2000 0 0 2000 0 2000 -2000 0 -2000 0 0
-2000z m2913 934 c215 -56 350 -217 373 -446 l7 -68 -90 0 -90 0 -6 55 c-6 63
-41 145 -81 192 -15 18 -57 47 -94 65 -64 32 -70 33 -192 33 -110 0 -131 -3
-177 -24 -69 -31 -135 -102 -158 -170 -22 -68 -17 -174 12 -223 45 -76 107
-106 438 -209 110 -34 222 -73 249 -86 64 -33 146 -110 179 -171 99 -182 62
-446 -84 -606 -102 -112 -235 -160 -444 -160 -147 0 -222 16 -320 67 -161 86
-274 285 -275 485 l0 52 83 0 83 0 12 -76 c31 -199 144 -309 344 -336 102 -14
220 -1 298 33 103 44 170 158 170 287 0 83 -22 134 -80 186 -59 53 -108 74
-398 164 -290 91 -340 117 -403 214 -48 74 -64 140 -63 258 1 244 127 418 349
481 80 23 274 25 358 3z m-1602 -724 c217 -396 397 -720 402 -720 4 0 7 324 7
720 l0 720 85 0 85 0 0 -880 0 -881 -107 3 -108 3 -382 699 c-210 384 -386
703 -392 709 -8 8 -11 -192 -11 -701 l0 -712 -85 0 -85 0 0 880 0 880 99 0 98
0 394 -720z"/>
</g>
</svg>
