<?xml version="1.0" standalone="no"?>
<!DOCTYPE svg PUBLIC "-//W3C//DTD SVG 20010904//EN"
 "http://www.w3.org/TR/2001/REC-SVG-20010904/DTD/svg10.dtd">
<svg version="1.0" xmlns="http://www.w3.org/2000/svg"
 width="700.000000pt" height="700.000000pt" viewBox="0 0 700.000000 700.000000"
 preserveAspectRatio="xMidYMid meet">
<metadata>
Created by potrace 1.14, written by Peter Selinger 2001-2017
</metadata>
<g transform="translate(0.000000,700.000000) scale(0.100000,-0.100000)"
fill="#000000" stroke="none">
<path d="M0 3500 l0 -3500 3500 0 3500 0 0 3500 0 3500 -3500 0 -3500 0 0
-3500z m5021 1655 c303 -53 518 -210 644 -470 59 -121 84 -217 92 -352 l6
-113 -156 0 -156 0 -5 48 c-12 104 -36 205 -61 259 -76 167 -223 272 -431 308
-261 45 -496 -14 -632 -159 -95 -102 -133 -203 -133 -352 0 -207 81 -317 302
-410 43 -18 251 -87 464 -154 421 -132 464 -148 565 -215 302 -201 409 -609
266 -1010 -85 -236 -214 -382 -427 -485 -255 -122 -654 -143 -940 -49 -391
128 -639 492 -639 937 l0 82 154 0 153 0 6 -98 c13 -246 150 -465 348 -560
146 -70 339 -96 538 -73 251 30 393 118 478 296 103 217 78 432 -68 575 -88
87 -192 135 -494 230 -143 45 -339 106 -435 137 -229 72 -313 116 -410 213
-118 118 -174 247 -188 435 -40 515 211 876 678 974 119 25 357 28 481 6z
m-2716 -1297 l690 -1262 3 1262 2 1262 155 0 155 0 0 -1540 0 -1540 -187 0
-188 1 -680 1245 c-373 685 -683 1248 -687 1250 -4 3 -8 -558 -8 -1245 l0
-1251 -155 0 -155 0 0 1540 0 1540 183 0 182 -1 690 -1261z"/>
</g>
</svg>
